<svg width="26" height="26" viewBox="0 0 26 26" fill="none" xmlns="http://www.w3.org/2000/svg">
<path d="M1 5.8C1 3.53726 1 2.40589 1.70294 1.70294C2.40589 1 3.53726 1 5.8 1C8.06274 1 9.19411 1 9.89706 1.70294C10.6 2.40589 10.6 3.53726 10.6 5.8V8.2C10.6 10.4627 10.6 11.5941 9.89706 12.2971C9.19411 13 8.06274 13 5.8 13C3.53726 13 2.40589 13 1.70294 12.2971C1 11.5941 1 10.4627 1 8.2V5.8Z" stroke="black" stroke-width="2"/>
<path d="M1 21.4C1 20.2817 1 19.7226 1.18269 19.2816C1.42627 18.6935 1.89349 18.2263 2.48156 17.9827C2.92261 17.8 3.48174 17.8 4.6 17.8H7C8.11826 17.8 8.67739 17.8 9.11844 17.9827C9.70651 18.2263 10.1737 18.6935 10.4173 19.2816C10.6 19.7226 10.6 20.2817 10.6 21.4C10.6 22.5183 10.6 23.0774 10.4173 23.5184C10.1737 24.1065 9.70651 24.5737 9.11844 24.8173C8.67739 25 8.11826 25 7 25H4.6C3.48174 25 2.92261 25 2.48156 24.8173C1.89349 24.5737 1.42627 24.1065 1.18269 23.5184C1 23.0774 1 22.5183 1 21.4Z" stroke="black" stroke-width="2"/>
<path d="M15.4 17.8C15.4 15.5373 15.4 14.4059 16.1029 13.7029C16.8059 13 17.9373 13 20.2 13C22.4627 13 23.5941 13 24.2971 13.7029C25 14.4059 25 15.5373 25 17.8V20.2C25 22.4627 25 23.5941 24.2971 24.2971C23.5941 25 22.4627 25 20.2 25C17.9373 25 16.8059 25 16.1029 24.2971C15.4 23.5941 15.4 22.4627 15.4 20.2V17.8Z" stroke="black" stroke-width="2"/>
<path d="M15.4 4.6C15.4 3.48174 15.4 2.92261 15.5827 2.48156C15.8263 1.89349 16.2935 1.42627 16.8816 1.18269C17.3226 1 17.8817 1 19 1H21.4C22.5183 1 23.0774 1 23.5184 1.18269C24.1065 1.42627 24.5737 1.89349 24.8173 2.48156C25 2.92261 25 3.48174 25 4.6C25 5.71826 25 6.27739 24.8173 6.71844C24.5737 7.30651 24.1065 7.77373 23.5184 8.01731C23.0774 8.2 22.5183 8.2 21.4 8.2H19C17.8817 8.2 17.3226 8.2 16.8816 8.01731C16.2935 7.77373 15.8263 7.30651 15.5827 6.71844C15.4 6.27739 15.4 5.71826 15.4 4.6Z" stroke="black" stroke-width="2"/>
</svg>
