<svg width="23" height="19" viewBox="0 0 23 19" fill="none" xmlns="http://www.w3.org/2000/svg">
<path d="M11.5001 7.33579C13.5226 7.33579 15.1682 5.69025 15.1682 3.66801C15.1682 1.64553 13.5226 -1.52588e-05 11.5001 -1.52588e-05C9.47763 -1.52588e-05 7.83209 1.64553 7.83209 3.66801C7.83209 5.6905 9.47763 7.33579 11.5001 7.33579ZM11.5001 0.898528C13.0273 0.898528 14.2696 2.1408 14.2696 3.66801C14.2696 5.19497 13.0273 6.4375 11.5001 6.4375C9.9729 6.4375 8.73064 5.19523 8.73064 3.66801C8.73064 2.1408 9.9729 0.898528 11.5001 0.898528Z" fill="black"/>
<path d="M4.79913 9.26909C6.10043 9.26909 7.15895 8.21057 7.15895 6.90926C7.15895 5.60796 6.10043 4.54944 4.79913 4.54944C3.49782 4.54944 2.4393 5.60796 2.4393 6.90926C2.4393 8.21057 3.49808 9.26909 4.79913 9.26909ZM4.79913 5.44798C5.6049 5.44798 6.26041 6.10349 6.26041 6.90926C6.26041 7.71504 5.6049 8.37055 4.79913 8.37055C3.99335 8.37055 3.33784 7.71504 3.33784 6.90926C3.33784 6.10349 3.99335 5.44798 4.79913 5.44798Z" fill="black"/>
<path d="M18.2011 9.26909C19.5022 9.26909 20.561 8.21057 20.561 6.90926C20.561 5.60796 19.5024 4.54944 18.2011 4.54944C16.8998 4.54944 15.8413 5.60796 15.8413 6.90926C15.8413 8.21057 16.8998 9.26909 18.2011 9.26909ZM18.2011 5.44798C19.0069 5.44798 19.6624 6.10349 19.6624 6.90926C19.6624 7.71504 19.0069 8.37055 18.2011 8.37055C17.3954 8.37055 16.7399 7.71504 16.7399 6.90926C16.7399 6.10349 17.3954 5.44798 18.2011 5.44798Z" fill="black"/>
<path d="M18.2011 9.56579C17.4994 9.56579 16.804 9.7204 16.1725 10.0145C14.8707 9.0332 13.2522 8.45053 11.5001 8.45053C9.74802 8.45053 8.12957 9.0332 6.82775 10.0145C6.19627 9.72014 5.50089 9.56579 4.79913 9.56579C2.15282 9.56579 0 11.7186 0 14.3649V15.2422C0 15.4904 0.201124 15.6915 0.449272 15.6915H3.74137C3.72911 15.8689 3.72246 16.0478 3.72246 16.2284V17.7063C3.72246 17.9545 3.92359 18.1556 4.17173 18.1556H18.8283C19.0764 18.1556 19.2775 17.9545 19.2775 17.7063V16.2282C19.2775 16.0478 19.2709 15.8689 19.2586 15.6913H22.5507C22.7989 15.6913 23 15.4901 23 15.242V14.3647C23.0003 11.7186 20.8474 9.56579 18.2011 9.56579ZM0.898543 14.793V14.3649C0.898543 12.2141 2.64835 10.4643 4.79913 10.4643C5.23 10.4643 5.65755 10.5361 6.06184 10.6741C4.9448 11.7682 4.15538 13.1952 3.85586 14.793H0.898543ZM18.3792 17.2568H4.62101V16.2282C4.62101 12.4349 7.70687 9.34907 11.5001 9.34907C15.2934 9.34907 18.3792 12.4349 18.3792 16.2282V17.2568ZM22.1017 14.793H19.1444C18.8451 13.1952 18.0557 11.7682 16.9384 10.6741C17.3427 10.5364 17.7702 10.4643 18.2011 10.4643C20.3519 10.4643 22.1017 12.2141 22.1017 14.3649V14.793Z" fill="black"/>
</svg>
