<svg width="24" height="21" viewBox="0 0 24 21" fill="none" xmlns="http://www.w3.org/2000/svg">
<path d="M19.1535 18.8824H19.6387C20.777 18.8824 21.6823 18.3553 22.4952 17.6185C24.5604 15.7464 19.7059 13.8527 18.0486 13.8527" stroke="#48525B" stroke-width="2" stroke-linecap="round" stroke-linejoin="round"/>
<path d="M15.2989 3.31215C15.5486 3.26181 15.808 3.23529 16.0741 3.23529C18.0758 3.23529 19.6985 4.73645 19.6985 6.58823C19.6985 8.44001 18.0758 9.94117 16.0741 9.94117C15.808 9.94117 15.5486 9.91465 15.2989 9.86431" stroke="#48525B" stroke-width="2" stroke-linecap="round"/>
<path d="M4.06058 14.536C2.85025 15.2422 -0.323129 16.684 1.60967 18.4883C2.55383 19.3697 3.60538 20 4.92744 20H12.4714C13.7934 20 14.845 19.3697 15.7891 18.4883C17.7219 16.684 14.5485 15.2422 13.3382 14.536C10.5 12.8801 6.89876 12.8801 4.06058 14.536Z" stroke="#48525B" stroke-width="2" stroke-linecap="round" stroke-linejoin="round"/>
<path d="M13.099 5.47059C13.099 7.93963 11.1292 9.94118 8.69937 9.94118C6.26951 9.94118 4.29971 7.93963 4.29971 5.47059C4.29971 3.00155 6.26951 1 8.69937 1C11.1292 1 13.099 3.00155 13.099 5.47059Z" stroke="#48525B" stroke-width="2"/>
</svg>
