<svg width="20" height="26" viewBox="0 0 20 26" fill="none" xmlns="http://www.w3.org/2000/svg">
<rect width="20" height="26" fill="#1E1E1E"/>
<g clip-path="url(#clip0_0_1)">
<rect width="1440" height="1109" transform="translate(-50 -282)" fill="#F9F9F9"/>
<g filter="url(#filter0_d_0_1)">
<rect width="319" height="1109" transform="translate(-50 -282)" fill="white"/>
<rect x="-12" y="-12" width="243" height="50" rx="10" fill="#B6B5FF" fill-opacity="0.15"/>
<path fill-rule="evenodd" clip-rule="evenodd" d="M9.99889 0C4.47988 0 0 4.43711 0 9.90343C0 13.8693 2.35882 17.293 5.76169 18.8736L9.52072 23.3012C9.63907 23.4417 9.81484 23.5206 10 23.5206C10.184 23.5206 10.3597 23.4405 10.4793 23.3012L14.2383 18.8736C17.6401 17.2929 20 13.869 20 9.90343C20 4.43711 15.5201 0 10.0011 0H9.99889ZM9.99889 1.23837C14.8279 1.23837 18.7487 5.12167 18.7487 9.90462C18.7487 13.4189 16.6312 16.448 13.5917 17.8085C13.5062 17.8468 13.4312 17.9025 13.3714 17.9733L9.99908 21.9424L6.62672 17.9733C6.56696 17.9025 6.49196 17.8468 6.40642 17.8085C3.36674 16.4494 1.24949 13.4201 1.24949 9.90462C1.24949 5.12167 5.17021 1.23837 9.99927 1.23837H9.99889ZM9.99889 2.47675C5.86008 2.47675 2.49942 5.80533 2.49942 9.90462C2.49942 14.0039 5.86008 17.3325 9.99889 17.3325C14.1377 17.3325 17.4984 14.0039 17.4984 9.90462C17.4984 5.80533 14.1377 2.47675 9.99889 2.47675ZM9.99889 3.71512C13.4474 3.71512 16.248 6.48896 16.248 9.90462C16.248 13.3203 13.4475 16.0941 9.99889 16.0941C6.5503 16.0941 3.74973 13.3203 3.74973 9.90462C3.74973 6.48899 6.5503 3.71512 9.99889 3.71512ZM13.1358 7.42906C12.9553 7.42558 12.7749 7.49986 12.6483 7.64609L9.33804 11.4703L7.31552 9.46705C7.07179 9.22565 6.67573 9.22565 6.43199 9.46705C6.18826 9.70846 6.18826 10.1007 6.43199 10.3421L8.93142 12.8177C9.05446 12.9396 9.22319 13.0046 9.39662 12.9976C9.57122 12.9918 9.73527 12.9129 9.84893 12.7817L13.5987 8.4492C13.8225 8.19039 13.792 7.7981 13.5295 7.57642C13.4147 7.47894 13.2752 7.43019 13.1358 7.42787L13.1358 7.42906ZM6.19396 21.5224C6.15295 21.5259 6.11193 21.534 6.07092 21.5468C5.26707 21.7847 4.64953 22.1016 4.27807 22.4439C3.91716 22.7759 3.7496 23.1507 3.7496 23.5233C3.7496 24.0026 4.03903 24.4994 4.66477 24.8986C5.66547 25.5358 7.67626 26 9.99869 26C12.3211 26 14.3319 25.5358 15.3326 24.8986C15.9583 24.5005 16.2478 24.0026 16.2478 23.5233C16.2478 23.1496 16.0802 22.7759 15.7193 22.4439C15.3479 22.1027 14.7303 21.7847 13.9265 21.5468C13.596 21.4493 13.2492 21.6362 13.1507 21.9623C13.0523 22.2896 13.2398 22.6343 13.5702 22.7317C14.0647 22.8768 14.4702 23.0509 14.7491 23.2528C14.8287 23.3109 14.8955 23.3689 14.9471 23.4327C14.9717 23.4629 14.9987 23.4896 14.9987 23.5233C14.9987 23.5801 14.9459 23.6208 14.8944 23.673C14.7514 23.8146 14.5405 23.9388 14.2792 24.056C13.3136 24.4901 11.754 24.7605 9.99848 24.7605C8.243 24.7605 6.68341 24.4901 5.71778 24.056C5.45647 23.9388 5.24555 23.8134 5.10258 23.673C5.05102 23.6208 4.99829 23.579 4.99829 23.5233C4.99829 23.4896 5.02407 23.4629 5.04985 23.4327C5.10024 23.3701 5.16703 23.3109 5.24789 23.2528C5.52678 23.0521 5.9334 22.878 6.42671 22.7317C6.75717 22.6331 6.94583 22.2895 6.8462 21.9623C6.75949 21.6768 6.48296 21.4969 6.19351 21.5224L6.19396 21.5224Z" fill="#1A1A1A"/>
</g>
</g>
<defs>
<filter id="filter0_d_0_1" x="-86" y="-318" width="399" height="1189" filterUnits="userSpaceOnUse" color-interpolation-filters="sRGB">
<feFlood flood-opacity="0" result="BackgroundImageFix"/>
<feColorMatrix in="SourceAlpha" type="matrix" values="0 0 0 0 0 0 0 0 0 0 0 0 0 0 0 0 0 0 127 0" result="hardAlpha"/>
<feOffset dx="4" dy="4"/>
<feGaussianBlur stdDeviation="20"/>
<feComposite in2="hardAlpha" operator="out"/>
<feColorMatrix type="matrix" values="0 0 0 0 0 0 0 0 0 0 0 0 0 0 0 0 0 0 0.06 0"/>
<feBlend mode="normal" in2="BackgroundImageFix" result="effect1_dropShadow_0_1"/>
<feBlend mode="normal" in="SourceGraphic" in2="effect1_dropShadow_0_1" result="shape"/>
</filter>
<clipPath id="clip0_0_1">
<rect width="1440" height="1109" fill="white" transform="translate(-50 -282)"/>
</clipPath>
</defs>
</svg>
